<svg width="278" height="278" viewBox="0 0 278 278" fill="none" xmlns="http://www.w3.org/2000/svg">
<path d="M198.16 139.5C206.114 131.525 210.58 120.722 210.58 109.46C210.58 98.1973 206.114 87.3944 198.16 79.4199L197.45 78.7099L168.12 108.05L139.5 79.4199C131.526 71.4667 120.723 67.0005 109.46 67.0005C98.1978 67.0005 87.3949 71.4667 79.4204 79.4199L78.7104 80.1299L108.05 109.46L79.4204 138.08C71.4672 146.054 67.001 156.857 67.001 168.12C67.001 179.382 71.4672 190.185 79.4204 198.16L80.1304 198.87L109.46 169.54L138.08 198.16C146.055 206.113 156.858 210.579 168.12 210.579C179.383 210.579 190.186 206.113 198.16 198.16L198.87 197.45L169.54 168.12L198.16 139.5ZM115.92 161.66C120.27 154.825 122.58 146.891 122.58 138.79C122.58 130.688 120.27 122.755 115.92 115.92C122.753 120.276 130.687 122.59 138.79 122.59C146.893 122.59 154.828 120.276 161.66 115.92C157.311 122.755 155.001 130.688 155.001 138.79C155.001 146.891 157.311 154.825 161.66 161.66C154.825 157.311 146.892 155 138.79 155C130.689 155 122.755 157.311 115.92 161.66V161.66Z" fill="white"/>
</svg>
