<svg width="366" height="72" viewBox="0 0 366 72" fill="none" xmlns="http://www.w3.org/2000/svg">
<mask id="mask0_94_301" style="mask-type:alpha" maskUnits="userSpaceOnUse" x="0" y="0" width="366" height="72">
<path d="M0 71.5063V0.259415L364.506 0L366 71.5063H0Z" fill="white"/>
</mask>
<g mask="url(#mask0_94_301)">
<g opacity="0.2">
<path d="M356.908 -246.473L970 366.619" stroke="white"/>
<path d="M342.674 -246.473L955.766 366.619" stroke="white"/>
<path d="M328.439 -246.473L941.531 366.619" stroke="white"/>
<path d="M314.205 -246.473L927.297 366.619" stroke="white"/>
<path d="M299.97 -246.473L913.062 366.619" stroke="white"/>
<path d="M285.736 -246.473L898.828 366.619" stroke="white"/>
<path d="M271.502 -246.473L884.594 366.619" stroke="white"/>
<path d="M257.267 -246.473L870.359 366.619" stroke="white"/>
<path d="M243.033 -246.473L856.125 366.619" stroke="white"/>
<path d="M228.799 -246.473L841.891 366.619" stroke="white"/>
<path d="M214.564 -246.473L827.656 366.619" stroke="white"/>
<path d="M200.33 -246.473L813.422 366.619" stroke="white"/>
<path d="M186.095 -246.473L799.188 366.619" stroke="white"/>
<path d="M171.861 -246.473L784.953 366.619" stroke="white"/>
<path d="M157.627 -246.473L770.719 366.619" stroke="white"/>
<path d="M143.392 -246.473L756.484 366.619" stroke="white"/>
<path d="M129.158 -246.473L742.25 366.619" stroke="white"/>
<path d="M114.924 -246.473L728.016 366.619" stroke="white"/>
<path d="M100.689 -246.473L713.781 366.619" stroke="white"/>
<path d="M86.4548 -246.473L699.547 366.619" stroke="white"/>
<path d="M72.2205 -246.473L685.312 366.619" stroke="white"/>
<path d="M57.9861 -246.473L671.078 366.619" stroke="white"/>
<path d="M43.7517 -246.473L656.844 366.619" stroke="white"/>
<path d="M29.5173 -246.473L642.609 366.619" stroke="white"/>
<path d="M15.283 -246.473L628.375 366.619" stroke="white"/>
<path d="M1.04858 -246.473L614.141 366.619" stroke="white"/>
<path d="M-13.1858 -246.473L599.906 366.619" stroke="white"/>
<path d="M-27.4202 -246.473L585.672 366.619" stroke="white"/>
<path d="M-41.6545 -246.473L571.438 366.619" stroke="white"/>
<path d="M-55.885 -246.473L557.207 366.619" stroke="white"/>
<path d="M-70.1194 -246.473L542.973 366.619" stroke="white"/>
<path d="M-84.3538 -246.473L528.738 366.619" stroke="white"/>
<path d="M-98.5881 -246.473L514.504 366.619" stroke="white"/>
<path d="M-112.823 -246.473L500.27 366.619" stroke="white"/>
<path d="M-127.057 -246.473L486.035 366.619" stroke="white"/>
<path d="M-141.291 -246.473L471.801 366.619" stroke="white"/>
<path d="M-155.526 -246.473L457.566 366.619" stroke="white"/>
<path d="M-169.76 -246.473L443.332 366.619" stroke="white"/>
<path d="M-183.994 -246.473L429.098 366.619" stroke="white"/>
<path d="M-198.229 -246.473L414.863 366.619" stroke="white"/>
<path d="M-212.463 -246.473L400.629 366.619" stroke="white"/>
<path d="M-226.698 -246.473L386.395 366.619" stroke="white"/>
<path d="M-240.932 -246.473L372.16 366.619" stroke="white"/>
<path d="M-255.166 -246.473L357.926 366.619" stroke="white"/>
<path d="M-269.401 -246.473L343.691 366.619" stroke="white"/>
<path d="M-283.635 -246.473L329.457 366.619" stroke="white"/>
<path d="M-297.869 -246.473L315.223 366.619" stroke="white"/>
<path d="M-312.104 -246.473L300.988 366.619" stroke="white"/>
<path d="M-326.338 -246.473L286.754 366.619" stroke="white"/>
<path d="M-340.573 -246.473L272.52 366.619" stroke="white"/>
<path d="M-354.807 -246.473L258.285 366.619" stroke="white"/>
<path d="M-369.041 -246.473L244.051 366.619" stroke="white"/>
<path d="M-383.276 -246.473L229.816 366.619" stroke="white"/>
<path d="M-391.092 -239.118L222 373.974" stroke="white"/>
<path d="M-398.908 -231.762L214.184 381.33" stroke="white"/>
<path d="M-406.725 -224.407L206.367 388.685" stroke="white"/>
<path d="M-414.541 -217.051L198.551 396.041" stroke="white"/>
<path d="M-422.358 -209.696L190.734 403.396" stroke="white"/>
<path d="M-430.174 -202.34L182.918 410.752" stroke="white"/>
<path d="M-437.99 -194.985L175.102 418.107" stroke="white"/>
<path d="M-445.807 -187.629L167.285 425.463" stroke="white"/>
<path d="M-453.623 -180.274L159.469 432.818" stroke="white"/>
<path d="M-461.44 -172.918L151.652 440.174" stroke="white"/>
<path d="M-469.256 -165.563L143.836 447.529" stroke="white"/>
<path d="M-477.073 -158.208L136.02 454.885" stroke="white"/>
<path d="M-484.889 -150.852L128.203 462.24" stroke="white"/>
<path d="M-492.705 -143.497L120.387 469.595" stroke="white"/>
<path d="M-500.522 -136.141L112.57 476.951" stroke="white"/>
</g>
</g>
</svg>
