<svg width="702" height="59" viewBox="0 0 702 59" fill="none" xmlns="http://www.w3.org/2000/svg">
<g clip-path="url(#clip0_529_29)">
<path d="M162.657 0H154.02V59H162.657V33.7835H231.28V59H239.917V0H162.657ZM231.28 25.2165H162.657V8.58015H231.28V25.2165Z" fill="white"/>
<path d="M462.084 0V8.58015V25.2165V33.7835V50.4198V59H470.721H547.981V50.4198H470.721V33.7835H539.344V25.2165H470.721V8.58015H547.981V0H470.721H462.084Z" fill="white"/>
<path d="M346.687 0H308.051V8.58015H346.687V59H355.325V8.58015H393.948V0H355.325H346.687Z" fill="white"/>
<path d="M0 0V8.58015V25.2165V33.7835V59H8.6372V33.7835H77.2601V25.2165H8.6372V8.58015H85.8973V0H8.6372H0Z" fill="white"/>
<path d="M624.739 8.58015H701.999V0H624.739H616.115V8.58015V25.2165V33.7835H624.739H693.375V50.4198H616.115V59H701.999V58.9476V50.4198V33.7835V25.2165V25.1641H693.375V25.2165H624.739V8.58015Z" fill="white"/>
</g>
<defs>
<clipPath id="clip0_529_29">
<rect width="702" height="59" fill="white"/>
</clipPath>
</defs>
</svg>
