<svg width="278" height="278" viewBox="0 0 278 278" fill="none" xmlns="http://www.w3.org/2000/svg">
<path d="M162.74 66H114.84C110.865 66.0009 107.052 67.5798 104.24 70.39L70.37 104.24C67.5672 107.055 65.9955 110.867 66 114.84V162.74C66.0009 166.715 67.5798 170.528 70.39 173.34L104.26 207.21C107.072 210.02 110.885 211.599 114.86 211.6H162.76C166.735 211.599 170.548 210.02 173.36 207.21L207.23 173.34C210.04 170.528 211.619 166.715 211.62 162.74V114.84C211.619 110.865 210.04 107.052 207.23 104.24L173.34 70.37C170.525 67.5672 166.713 65.9955 162.74 66ZM187.46 152.16L152.14 187.48C150.388 189.234 148.306 190.626 146.016 191.576C143.725 192.525 141.27 193.014 138.79 193.014C136.31 193.014 133.855 192.525 131.564 191.576C129.274 190.626 127.193 189.234 125.44 187.48L90.12 152.14C86.5819 148.598 84.5945 143.796 84.5945 138.79C84.5945 133.784 86.5819 128.982 90.12 125.44L125.44 90.12C128.982 86.5819 133.784 84.5945 138.79 84.5945C143.796 84.5945 148.598 86.5819 152.14 90.12L187.46 125.44C189.214 127.193 190.606 129.274 191.556 131.564C192.505 133.855 192.994 136.31 192.994 138.79C192.994 141.27 192.505 143.725 191.556 146.016C190.606 148.306 189.214 150.388 187.46 152.14V152.16Z" fill="white"/>
<path d="M138.79 173.03C157.7 173.03 173.03 157.7 173.03 138.79C173.03 119.88 157.7 104.55 138.79 104.55C119.88 104.55 104.55 119.88 104.55 138.79C104.55 157.7 119.88 173.03 138.79 173.03Z" fill="white"/>
</svg>
