<svg width="278" height="278" viewBox="0 0 278 278" fill="none" xmlns="http://www.w3.org/2000/svg">
<path d="M188.26 163.94C194.955 164.026 201.42 161.494 206.276 156.884C211.133 152.274 213.997 145.951 214.26 139.26C214.383 132.591 211.852 126.146 207.224 121.344C202.596 116.541 196.249 113.773 189.58 113.65H188.28C181.83 113.65 175.644 111.088 171.083 106.527C166.522 101.966 163.96 95.7799 163.96 89.3299C164.046 82.6345 161.514 76.1701 156.905 71.3136C152.295 66.4572 145.971 63.5926 139.28 63.3299C135.977 63.2662 132.694 63.8539 129.618 65.0594C126.543 66.2648 123.735 68.0644 121.354 70.3553C118.974 72.6463 117.069 75.3837 115.747 78.4112C114.425 81.4387 113.712 84.6969 113.65 87.9999C113.65 88.1599 113.65 88.3099 113.65 88.4699V89.2999C113.65 92.4936 113.021 95.6561 111.799 98.6067C110.577 101.557 108.785 104.238 106.527 106.497C104.269 108.755 101.588 110.546 98.6369 111.769C95.6863 112.991 92.5238 113.62 89.3301 113.62C82.6361 113.539 76.1746 116.072 71.3193 120.681C66.464 125.29 63.5978 131.611 63.3301 138.3C63.2651 141.604 63.8518 144.888 65.0566 147.965C66.2615 151.042 68.0609 153.851 70.3519 156.232C72.643 158.613 75.3809 160.519 78.409 161.842C81.4372 163.165 84.6963 163.877 88.0001 163.94H89.3001C92.4938 163.94 95.6563 164.569 98.6069 165.791C101.558 167.013 104.239 168.805 106.497 171.063C108.755 173.321 110.547 176.002 111.769 178.953C112.991 181.904 113.62 185.066 113.62 188.26V189.09C113.62 195.76 116.27 202.157 120.986 206.874C125.703 211.59 132.1 214.24 138.77 214.24H139.24C145.931 213.977 152.255 211.113 156.865 206.256C161.474 201.4 164.006 194.935 163.92 188.24C163.923 185.046 164.554 181.884 165.779 178.935C167.004 175.985 168.797 173.305 171.057 171.049C173.318 168.792 176 167.003 178.952 165.783C181.903 164.564 185.066 163.937 188.26 163.94V163.94ZM138.79 167.41C133.13 167.41 127.596 165.731 122.89 162.587C118.183 159.442 114.515 154.972 112.349 149.742C110.182 144.513 109.616 138.758 110.72 133.206C111.824 127.655 114.55 122.555 118.553 118.552C122.555 114.55 127.655 111.824 133.207 110.72C138.758 109.615 144.513 110.182 149.742 112.348C154.972 114.515 159.442 118.183 162.587 122.889C165.732 127.596 167.41 133.129 167.41 138.79C167.41 146.38 164.395 153.66 159.027 159.027C153.66 164.395 146.381 167.41 138.79 167.41V167.41Z" fill="white"/>
</svg>
