<svg width="278" height="278" viewBox="0 0 278 278" fill="none" xmlns="http://www.w3.org/2000/svg">
<path d="M138.79 215.7C123.174 215.7 108.198 209.497 97.1556 198.455C86.1135 187.413 79.91 172.436 79.91 156.82L79.91 120.49C95.526 120.49 110.502 126.694 121.544 137.736C132.587 148.778 138.79 163.754 138.79 179.37V215.7Z" fill="white"/>
<path d="M197.67 120.49V156.82C197.67 172.436 191.467 187.413 180.424 198.455C169.382 209.497 154.406 215.7 138.79 215.7V179.37C138.79 163.754 144.993 148.778 156.036 137.736C167.078 126.694 182.054 120.49 197.67 120.49V120.49Z" fill="white"/>
<path d="M180.34 61.8799C169.321 61.8825 158.754 66.261 150.963 74.0525C143.171 81.8441 138.793 92.4109 138.79 103.43C138.79 92.4101 134.413 81.8417 126.621 74.0496C118.828 66.2575 108.26 61.8799 97.2402 61.8799V61.8799V87.5199C97.2402 98.5396 101.618 109.108 109.41 116.9C117.202 124.692 127.77 129.07 138.79 129.07C149.81 129.07 160.378 124.692 168.171 116.9C175.963 109.108 180.34 98.5396 180.34 87.5199V61.8799V61.8799Z" fill="white"/>
</svg>
