<svg width="360" height="112" viewBox="0 0 360 112" fill="none" xmlns="http://www.w3.org/2000/svg">
<g clip-path="url(#clip0_529_25)">
<path d="M185.529 17.2858C185.963 17.039 186.344 16.7077 186.65 16.3111C186.955 15.9145 187.179 15.4607 187.307 14.9762C187.436 14.4917 187.467 13.9863 187.399 13.4895C187.331 12.9927 187.165 12.5146 186.911 12.0831L180.144 0.414662C180.071 0.288152 179.966 0.183173 179.839 0.11019C179.713 0.037207 179.57 -0.0012207 179.424 -0.0012207C179.279 -0.0012207 179.136 0.037207 179.01 0.11019C178.883 0.183173 178.778 0.288152 178.705 0.414662L171.988 12.1397C171.737 12.5707 171.574 13.0477 171.508 13.5427C171.442 14.0377 171.474 14.541 171.603 15.0233C171.733 15.5056 171.956 15.9573 172.26 16.3522C172.565 16.7471 172.944 17.0772 173.377 17.3235L176.616 19.2086L179.412 20.8234L182.495 19.0452L185.529 17.2858Z" fill="white"/>
<path d="M198.745 32.7371L192.059 21.0309C191.814 20.5939 191.485 20.2104 191.09 19.9029C190.696 19.5954 190.244 19.3701 189.762 19.2402C189.28 19.1103 188.776 19.0784 188.282 19.1463C187.787 19.2143 187.311 19.3808 186.881 19.636L183.854 21.4017L180.783 23.205V30.2237C180.783 31.2236 181.179 32.1825 181.882 32.8895C182.586 33.5966 183.54 33.9938 184.536 33.9938H198.001C198.149 33.9984 198.296 33.9631 198.427 33.8913C198.557 33.8196 198.666 33.7141 198.742 33.5858C198.818 33.4575 198.858 33.3112 198.859 33.1619C198.859 33.0127 198.82 32.866 198.745 32.7371Z" fill="white"/>
<path d="M171.983 19.6421C171.553 19.3869 171.077 19.2204 170.582 19.1524C170.087 19.0845 169.584 19.1164 169.102 19.2463C168.62 19.3762 168.168 19.6015 167.774 19.909C167.379 20.2165 167.05 20.6 166.805 21.0371L160.113 32.7369C160.041 32.8647 160.003 33.0093 160.004 33.1561C160.005 33.303 160.044 33.4471 160.117 33.5741C160.19 33.7011 160.295 33.8067 160.422 33.8803C160.548 33.9539 160.692 33.993 160.838 33.9936H174.303C175.299 33.9936 176.253 33.5964 176.957 32.8894C177.66 32.1823 178.056 31.2234 178.056 30.2235V23.2112L174.979 21.4078L171.983 19.6421Z" fill="white"/>
</g>
<path d="M83.4137 81.2913H78.9844V111.749H83.4137V98.7313H118.605V111.749H123.034V81.2913H83.4137ZM118.605 94.3088H83.4137V85.7206H118.605V94.3088Z" fill="white"/>
<path d="M236.967 81.2913V85.7206V94.3088V98.7313V107.32V111.749H241.396H281.017V107.32H241.396V98.7313H276.587V94.3088H241.396V85.7206H281.017V81.2913H241.396H236.967Z" fill="white"/>
<path d="M177.788 81.2913H157.975V85.7206H177.788V111.749H182.218V85.7206H202.024V81.2913H182.218H177.788Z" fill="white"/>
<path d="M0 81.2913V85.7206V94.3088V98.7313V111.749H4.42933V98.7313H39.6206V94.3088H4.42933V85.7206H44.0499V81.2913H4.42933H0Z" fill="white"/>
<path d="M320.38 85.7206H360V81.2913H320.38H315.957V85.7206V94.3088V98.7313H320.38H355.578V107.32H315.957V111.749H360V111.722V107.32V98.7313V94.3088V94.2817H355.578V94.3088H320.38V85.7206Z" fill="white"/>
<defs>
<clipPath id="clip0_529_25">
<rect width="38.8571" height="34" fill="white" transform="translate(160)"/>
</clipPath>
</defs>
</svg>
