<svg width="54" height="54" viewBox="0 0 54 54" fill="none" xmlns="http://www.w3.org/2000/svg">
<g clip-path="url(#clip0_1437_50)">
<path d="M31.3977 27.1997C32.7073 26.459 33.1537 24.8106 32.3937 23.5253L27.5168 15.2941C27.2844 14.902 26.7089 14.902 26.4765 15.2941L21.6364 23.5725C20.8875 24.8542 21.3339 26.4953 22.6398 27.2324L24.9713 28.554L26.9856 29.6941L29.2101 28.4378L31.394 27.1997H31.3977Z" fill="white"/>
<path d="M40.9193 38.1141L36.0977 29.8466C35.3451 28.5577 33.6703 28.1183 32.3681 28.8627L30.1878 30.1117L27.9707 31.3825V33.6699V36.3168C27.9707 37.7982 29.1881 38.9964 30.6932 38.9964H40.3955C40.8566 38.9964 41.148 38.5062 40.9156 38.1105L40.9193 38.1141Z" fill="white"/>
<path d="M21.6324 28.8662C20.3265 28.1183 18.6516 28.5612 17.9028 29.8502L13.0812 38.114C12.8524 38.5098 13.1402 39 13.6013 39H23.3036C24.8087 39 26.0261 37.8018 26.0261 36.3204V33.6735V31.3861L23.809 30.1153L21.6287 28.8662H21.6324Z" fill="white"/>
</g>
<defs>
<clipPath id="clip0_1437_50">
<rect width="28" height="24" fill="white" transform="translate(13 15)"/>
</clipPath>
</defs>
</svg>
