<svg width="54" height="54" viewBox="0 0 54 54" fill="none" xmlns="http://www.w3.org/2000/svg">
<path d="M38.5215 20.9741C38.5395 21.2333 38.5395 21.4949 38.5395 21.7565C38.5395 29.7656 32.4431 39 21.2957 39C18 39.0048 14.7727 38.0598 12 36.2783C12.4779 36.3352 12.9588 36.364 13.4401 36.3647C16.1709 36.3687 18.8236 35.4531 20.9705 33.7654C19.7057 33.7421 18.4798 33.3239 17.4645 32.5692C16.4493 31.8145 15.6954 30.7612 15.3086 29.5568C16.2165 29.7322 17.1526 29.6969 18.0447 29.4536C16.6733 29.1764 15.44 28.4336 14.5537 27.3509C13.6675 26.2683 13.1829 24.9125 13.1821 23.5134V23.4366C14.025 23.9058 14.9683 24.1659 15.9326 24.195C14.6497 23.3379 13.7415 22.024 13.3931 20.521C13.0446 19.0179 13.282 17.4385 14.0569 16.1043C15.5785 17.9765 17.4769 19.5078 19.6287 20.5988C21.7805 21.6897 24.1377 22.316 26.5472 22.4369C26.2459 21.1378 26.381 19.7756 26.9318 18.561C27.4826 17.3464 28.4183 16.3472 29.5941 15.7179C30.7699 15.0885 32.1204 14.8643 33.4365 15.0797C34.7527 15.2951 35.9611 15.9382 36.875 16.9095C38.2319 16.6418 39.5331 16.1442 40.7224 15.4383C40.2702 16.8416 39.3234 18.0328 38.0583 18.79C39.2594 18.648 40.4325 18.3268 41.5385 17.8372C40.7266 19.0533 39.705 20.1154 38.5215 20.9741Z" fill="white"/>
</svg>
