<svg width="278" height="278" viewBox="0 0 278 278" fill="none" xmlns="http://www.w3.org/2000/svg">
<path d="M115.51 185.36C115.51 182.302 114.908 179.274 113.737 176.449C112.567 173.623 110.851 171.057 108.688 168.895C106.526 166.733 103.958 165.018 101.132 163.849C98.3068 162.68 95.2784 162.078 92.2204 162.08H68.9404V115.51H115.51V138.79C115.509 141.848 116.11 144.876 117.28 147.702C118.449 150.527 120.164 153.095 122.325 155.258C124.487 157.42 127.054 159.136 129.879 160.307C132.704 161.477 135.732 162.08 138.79 162.08H162.08V208.64H115.51V185.36Z" fill="white"/>
<path d="M138.79 115.51H115.51V68.9399H162.08V92.2199C162.078 95.278 162.68 98.3063 163.849 101.132C165.018 103.957 166.733 106.525 168.895 108.688C171.057 110.851 173.623 112.566 176.449 113.737C179.274 114.907 182.302 115.51 185.36 115.51H208.64V162.08H162.08V138.79C162.08 135.732 161.477 132.704 160.307 129.879C159.136 127.054 157.42 124.487 155.258 122.325C153.095 120.163 150.527 118.448 147.702 117.279C144.876 116.11 141.848 115.509 138.79 115.51V115.51Z" fill="white"/>
</svg>
