<svg width="39" height="34" viewBox="0 0 39 34" fill="none" xmlns="http://www.w3.org/2000/svg">
<g clip-path="url(#clip0_115_933)">
<path d="M25.5295 17.2859C25.964 17.0391 26.3451 16.7078 26.6506 16.3112C26.956 15.9146 27.1796 15.4607 27.3084 14.9762C27.4371 14.4917 27.4683 13.9863 27.4002 13.4896C27.3321 12.9928 27.166 12.5147 26.9117 12.0832L20.1447 0.414723C20.0715 0.288213 19.9666 0.183234 19.8404 0.110251C19.7142 0.037268 19.5711 -0.00115967 19.4255 -0.00115967C19.2798 -0.00115967 19.1367 0.037268 19.0105 0.110251C18.8843 0.183234 18.7794 0.288213 18.7063 0.414723L11.9892 12.1397C11.7382 12.5708 11.5749 13.0477 11.5089 13.5428C11.4428 14.0378 11.4753 14.5411 11.6045 15.0234C11.7336 15.5057 11.9569 15.9574 12.2613 16.3523C12.5657 16.7471 12.9452 17.0773 13.3777 17.3236L16.6173 19.2086L19.4129 20.8235L22.4963 19.0453L25.5295 17.2859Z" fill="white"/>
<path d="M38.7447 32.737L32.059 21.0308C31.8139 20.5938 31.4844 20.2103 31.0899 19.9028C30.6954 19.5953 30.2438 19.37 29.7615 19.2401C29.2792 19.1102 28.776 19.0782 28.2813 19.1462C27.7866 19.2142 27.3104 19.3807 26.8805 19.6359L23.8535 21.4015L20.7827 23.2049V30.2236C20.7827 31.2235 21.178 32.1824 21.8818 32.8894C22.5855 33.5964 23.54 33.9937 24.5352 33.9937H38.0005C38.1489 33.9983 38.296 33.9629 38.4262 33.8912C38.5565 33.8194 38.6653 33.714 38.7412 33.5857C38.8172 33.4574 38.8576 33.3111 38.8582 33.1618C38.8588 33.0126 38.8196 32.8659 38.7447 32.737Z" fill="white"/>
<path d="M11.983 19.6422C11.5532 19.387 11.0769 19.2205 10.5822 19.1526C10.0875 19.0846 9.58428 19.1165 9.10201 19.2464C8.61973 19.3763 8.16811 19.6016 7.77361 19.9091C7.3791 20.2166 7.04967 20.6001 6.80456 21.0372L0.112557 32.7371C0.0405597 32.8649 0.00314555 33.0094 0.00391797 33.1562C0.0046904 33.3031 0.0436473 33.4472 0.116985 33.5742C0.190322 33.7013 0.295489 33.8068 0.421982 33.8804C0.548475 33.954 0.691891 33.9931 0.838061 33.9938H14.3033C15.2985 33.9938 16.253 33.5965 16.9567 32.8895C17.6605 32.1825 18.0558 31.2235 18.0558 30.2237V23.2113L14.9787 21.4079L11.983 19.6422Z" fill="white"/>
</g>
<defs>
<clipPath id="clip0_115_933">
<rect width="38.8571" height="34" fill="white"/>
</clipPath>
</defs>
</svg>
