<svg width="54" height="54" viewBox="0 0 54 54" fill="none" xmlns="http://www.w3.org/2000/svg">
<path d="M38.1146 17.0114C36.0198 16.0599 33.8032 15.3835 31.5236 15C31.2399 15.4997 30.9046 16.1744 30.6724 16.6991C28.248 16.3493 25.7836 16.3493 23.3592 16.6991C23.1024 16.1183 22.8139 15.5512 22.495 15C20.2118 15.3853 17.9912 16.0616 15.8912 17.0114C12.1553 22.2634 10.4726 28.6325 11.1448 34.9771C13.586 36.759 16.3262 38.1199 19.2448 39C19.9036 38.1239 20.486 37.1961 20.986 36.2264C20.0386 35.8882 19.1236 35.4702 18.2516 34.9771C18.4838 34.8147 18.703 34.6398 18.9223 34.4648C21.4471 35.6428 24.2134 36.2545 27.0158 36.2545C29.8182 36.2545 32.5846 35.6428 35.1093 34.4648C35.3286 34.6398 35.5479 34.8147 35.78 34.9771C34.9107 35.4751 33.9952 35.8933 33.0456 36.2264C33.5363 37.1984 34.1147 38.1266 34.774 39C37.6947 38.125 40.4358 36.7637 42.874 34.9771C43.5515 28.6303 41.8634 22.258 38.1146 17.0114V17.0114ZM21.6953 31.3664C20.8832 31.3056 20.1279 30.9397 19.5905 30.3468C19.0531 29.7539 18.7763 28.981 18.8191 28.1931C18.891 27.6571 19.121 27.1524 19.4815 26.7398C19.842 26.3271 20.3176 26.0238 20.8515 25.8663C21.3854 25.7089 21.9548 25.7038 22.4916 25.8518C23.0283 25.9998 23.5096 26.2946 23.8778 26.7008C24.246 27.1071 24.4854 27.6075 24.5675 28.1422C24.6495 28.6769 24.5707 29.2232 24.3404 29.7155C24.11 30.2079 23.738 30.6256 23.2689 30.9184C22.7997 31.2112 22.2534 31.3667 21.6953 31.3664V31.3664ZM32.3233 31.3664C31.5252 31.2692 30.7912 30.8932 30.2591 30.3089C29.727 29.7246 29.4334 28.9723 29.4334 28.1931C29.4334 27.414 29.727 26.6616 30.2591 26.0773C30.7912 25.493 31.5252 25.117 32.3233 25.0198C32.7285 25.0419 33.125 25.142 33.4898 25.3141C33.8546 25.4863 34.1804 25.7271 34.4481 26.0225C34.7159 26.3179 34.9202 26.6619 35.0492 27.0346C35.1782 27.4073 35.2294 27.8011 35.1996 28.1931C35.2492 28.9826 34.9747 29.759 34.436 30.3534C33.8973 30.9478 33.1379 31.3119 32.3233 31.3664V31.3664Z" fill="white"/>
</svg>
